<svg width="140" height="140" viewBox="0 0 140 140" xmlns="http://www.w3.org/2000/svg">
  <path d="M18 110C10 70 25 35 60 20C95 5 120 25 122 55C124 85 95 115 55 125C35 130 25 120 18 110Z" fill="#5E8F2E"/>
  <path d="M30 105C28 70 40 45 70 32C95 22 110 35 112 58C114 80 90 105 60 112C45 115 35 110 30 105Z" fill="#6FA23A"/>
  <path d="M28 112C45 85 65 60 100 35" stroke="#4E7F25" stroke-width="6" stroke-linecap="round"/>
  <path d="M55 95C60 80 70 65 82 52" stroke="#4E7F25" stroke-width="5" stroke-linecap="round"/>
  <path d="M48 75C50 65 58 55 66 48" stroke="#4E7F25" stroke-width="5" stroke-linecap="round"/>
</svg>
